<svg id="visual" viewBox="0 0 900 600" width="900" height="600" xmlns="http://www.w3.org/2000/svg" xmlns:xlink="http://www.w3.org/1999/xlink" version="1.1"><rect x="0" y="0" width="900" height="600" fill="#ffffff"></rect><g fill="#000000"><circle r="22" cx="324" cy="372"></circle><circle r="2" cx="678" cy="493"></circle><circle r="12" cx="108" cy="552"></circle><circle r="1" cx="775" cy="66"></circle><circle r="7" cx="243" cy="472"></circle><circle r="11" cx="737" cy="114"></circle><circle r="19" cx="412" cy="330"></circle><circle r="7" cx="816" cy="259"></circle><circle r="20" cx="803" cy="101"></circle><circle r="3" cx="282" cy="208"></circle><circle r="7" cx="510" cy="56"></circle><circle r="11" cx="259" cy="540"></circle><circle r="17" cx="137" cy="497"></circle><circle r="17" cx="124" cy="122"></circle><circle r="10" cx="700" cy="29"></circle><circle r="10" cx="601" cy="563"></circle><circle r="17" cx="531" cy="500"></circle><circle r="7" cx="874" cy="316"></circle><circle r="17" cx="785" cy="350"></circle><circle r="14" cx="336" cy="67"></circle><circle r="8" cx="443" cy="251"></circle><circle r="13" cx="623" cy="103"></circle><circle r="15" cx="491" cy="133"></circle><circle r="10" cx="448" cy="85"></circle><circle r="9" cx="776" cy="237"></circle><circle r="4" cx="232" cy="371"></circle><circle r="14" cx="860" cy="162"></circle><circle r="7" cx="593" cy="436"></circle><circle r="2" cx="465" cy="474"></circle><circle r="19" cx="295" cy="114"></circle><circle r="8" cx="219" cy="144"></circle><circle r="19" cx="738" cy="442"></circle><circle r="18" cx="22" cy="82"></circle><circle r="3" cx="685" cy="446"></circle><circle r="2" cx="53" cy="240"></circle><circle r="11" cx="189" cy="453"></circle><circle r="1" cx="540" cy="97"></circle><circle r="5" cx="552" cy="178"></circle><circle r="8" cx="69" cy="289"></circle><circle r="1" cx="26" cy="469"></circle><circle r="8" cx="298" cy="280"></circle><circle r="5" cx="34" cy="410"></circle><circle r="20" cx="78" cy="467"></circle><circle r="20" cx="245" cy="266"></circle><circle r="17" cx="24" cy="275"></circle><circle r="3" cx="450" cy="201"></circle><circle r="5" cx="281" cy="333"></circle><circle r="15" cx="672" cy="170"></circle><circle r="8" cx="843" cy="52"></circle><circle r="5" cx="877" cy="459"></circle><circle r="9" cx="650" cy="540"></circle><circle r="12" cx="610" cy="498"></circle><circle r="7" cx="751" cy="547"></circle><circle r="14" cx="556" cy="558"></circle><circle r="5" cx="356" cy="177"></circle><circle r="13" cx="279" cy="59"></circle><circle r="10" cx="409" cy="187"></circle><circle r="5" cx="741" cy="489"></circle></g></svg>